<svg xmlns="http://www.w3.org/2000/svg" width="1200" height="780" viewBox="0 0 1200 780" font-family="'Segoe UI', 'DejaVu Sans', Arial, sans-serif"><rect width="100%" height="100%" fill="#fff"/><rect x="10" y="10" width="1180" height="760" rx="10" fill="#ffffff" stroke="#374151" stroke-width="2"/>
<line x1="10" y1="50" x2="1190" y2="50" stroke="#374151" stroke-width="2"/>
<circle cx="34" cy="30" r="6" fill="none" stroke="#6b7280"/><circle cx="54" cy="30" r="6" fill="none" stroke="#6b7280"/><circle cx="74" cy="30" r="6" fill="none" stroke="#6b7280"/>
<rect x="100" y="19" width="600" height="22" rx="11" fill="#f3f4f6" stroke="#9ca3af" stroke-width="1.6"/>
<text x="115" y="35" font-size="13" font-weight="400" text-anchor="start" fill="#6b7280">subtracker/  — Главная</text>
<rect x="10" y="50" width="220" height="720" rx="0" fill="#f3f4f6" stroke="#374151" stroke-width="0"/>
<line x1="230" y1="50" x2="230" y2="770" stroke="#374151" stroke-width="1.6"/>
<rect x="30" y="70" width="34" height="30" rx="4" fill="#f3f4f6" stroke="#9ca3af" stroke-width="1.6"/>
<line x1="30" y1="70" x2="64" y2="100" stroke="#9ca3af"/>
<line x1="64" y1="70" x2="30" y2="100" stroke="#9ca3af"/>
<text x="76" y="92" font-size="18" font-weight="700" text-anchor="start" fill="#374151">SubTracker</text>
<rect x="22" y="126" width="196" height="38" rx="6" fill="#d1d5db" stroke="#374151" stroke-width="1.2"/>
<rect x="34" y="136" width="18" height="18" rx="3" fill="#ffffff" stroke="#9ca3af" stroke-width="1.2"/>
<text x="62" y="151" font-size="15" font-weight="600" text-anchor="start" fill="#374151">Главная</text>
<rect x="34" y="182" width="18" height="18" rx="3" fill="#ffffff" stroke="#9ca3af" stroke-width="1.2"/>
<text x="62" y="197" font-size="15" font-weight="400" text-anchor="start" fill="#374151">Подписки</text>
<rect x="34" y="228" width="18" height="18" rx="3" fill="#ffffff" stroke="#9ca3af" stroke-width="1.2"/>
<text x="62" y="243" font-size="15" font-weight="400" text-anchor="start" fill="#374151">Календарь</text>
<rect x="34" y="274" width="18" height="18" rx="3" fill="#ffffff" stroke="#9ca3af" stroke-width="1.2"/>
<text x="62" y="289" font-size="15" font-weight="400" text-anchor="start" fill="#374151">История расходов</text>
<rect x="34" y="320" width="18" height="18" rx="3" fill="#ffffff" stroke="#9ca3af" stroke-width="1.2"/>
<text x="62" y="335" font-size="15" font-weight="400" text-anchor="start" fill="#374151">Аналитика</text>
<rect x="34" y="366" width="18" height="18" rx="3" fill="#ffffff" stroke="#9ca3af" stroke-width="1.2"/>
<text x="62" y="381" font-size="15" font-weight="400" text-anchor="start" fill="#374151">Уведомления</text>
<line x1="22" y1="670" x2="218" y2="670" stroke="#9ca3af"/>
<text x="34" y="704" font-size="15" font-weight="400" text-anchor="start" fill="#374151">○  Профиль</text>
<text x="34" y="740" font-size="15" font-weight="400" text-anchor="start" fill="#374151">→  Выйти</text>
<text x="260" y="92" font-size="26" font-weight="700" text-anchor="start" fill="#374151">Здравствуйте, {имя}!</text>
<rect x="260" y="106" width="300" height="10" rx="5" fill="#e5e7eb"/>
<rect x="1010" y="66" width="160" height="36" rx="6" fill="#4b5563" stroke="#374151" stroke-width="1.6"/><text x="1090.0" y="89" font-size="14" font-weight="600" text-anchor="middle" fill="#ffffff">+ Добавить</text>
<rect x="260" y="140" width="210" height="100" rx="6" fill="#ffffff" stroke="#374151" stroke-width="1.6"/>
<text x="276" y="168" font-size="13" font-weight="400" text-anchor="start" fill="#4b5563">Активных подписок</text>
<text x="276" y="208" font-size="26" font-weight="700" text-anchor="start" fill="#374151">0 000 ₽</text>
<rect x="432" y="190" width="26" height="26" rx="6" fill="#f3f4f6" stroke="#9ca3af" stroke-width="1.6"/>
<rect x="490" y="140" width="210" height="100" rx="6" fill="#ffffff" stroke="#374151" stroke-width="1.6"/>
<text x="506" y="168" font-size="13" font-weight="400" text-anchor="start" fill="#4b5563">Расходы в месяц</text>
<text x="506" y="208" font-size="26" font-weight="700" text-anchor="start" fill="#374151">0 000 ₽</text>
<rect x="662" y="190" width="26" height="26" rx="6" fill="#f3f4f6" stroke="#9ca3af" stroke-width="1.6"/>
<rect x="720" y="140" width="210" height="100" rx="6" fill="#ffffff" stroke="#374151" stroke-width="1.6"/>
<text x="736" y="168" font-size="13" font-weight="400" text-anchor="start" fill="#4b5563">Расходы в год</text>
<text x="736" y="208" font-size="26" font-weight="700" text-anchor="start" fill="#374151">0 000 ₽</text>
<rect x="892" y="190" width="26" height="26" rx="6" fill="#f3f4f6" stroke="#9ca3af" stroke-width="1.6"/>
<rect x="950" y="140" width="210" height="100" rx="6" fill="#ffffff" stroke="#374151" stroke-width="1.6"/>
<text x="966" y="168" font-size="13" font-weight="400" text-anchor="start" fill="#4b5563">Списано в месяце</text>
<text x="966" y="208" font-size="26" font-weight="700" text-anchor="start" fill="#374151">0 000 ₽</text>
<rect x="1122" y="190" width="26" height="26" rx="6" fill="#f3f4f6" stroke="#9ca3af" stroke-width="1.6"/>
<rect x="260" y="262" width="910" height="64" rx="6" fill="#ffffff" stroke="#374151" stroke-width="1.6"/>
<text x="280" y="290" font-size="15" font-weight="700" text-anchor="start" fill="#374151">Месячный бюджет</text>
<text x="1150" y="290" font-size="14" font-weight="400" text-anchor="end" fill="#374151">9 035 из 5 000 ₽</text>
<rect x="280" y="302" width="870" height="10" rx="5" fill="#e5e7eb" stroke="#9ca3af" stroke-width="1.6"/>
<rect x="280" y="302" width="620" height="10" rx="5" fill="#6b7280" stroke="#6b7280" stroke-width="1.6"/>
<rect x="260" y="346" width="540" height="400" rx="6" fill="#ffffff" stroke="#374151" stroke-width="1.6"/>
<text x="280" y="378" font-size="16" font-weight="700" text-anchor="start" fill="#374151">Ближайшие списания (14 дней)</text>
<text x="780" y="378" font-size="14" font-weight="400" text-anchor="end" fill="#374151">Календарь</text>
<line x1="260" y1="394" x2="800" y2="394" stroke="#e5e7eb"/>
<rect x="280" y="408" width="40" height="40" rx="8" fill="#f3f4f6" stroke="#9ca3af" stroke-width="1.6"/>
<rect x="336" y="414" width="160" height="10" rx="5" fill="#e5e7eb"/>
<rect x="336" y="434" width="220" height="8" rx="5" fill="#e5e7eb"/>
<rect x="690" y="414" width="90" height="10" rx="5" fill="#e5e7eb"/>
<rect x="650" y="434" width="130" height="8" rx="5" fill="#e5e7eb"/>
<line x1="260" y1="462" x2="800" y2="462" stroke="#e5e7eb"/>
<rect x="280" y="476" width="40" height="40" rx="8" fill="#f3f4f6" stroke="#9ca3af" stroke-width="1.6"/>
<rect x="336" y="482" width="160" height="10" rx="5" fill="#e5e7eb"/>
<rect x="336" y="502" width="220" height="8" rx="5" fill="#e5e7eb"/>
<rect x="690" y="482" width="90" height="10" rx="5" fill="#e5e7eb"/>
<rect x="650" y="502" width="130" height="8" rx="5" fill="#e5e7eb"/>
<line x1="260" y1="530" x2="800" y2="530" stroke="#e5e7eb"/>
<rect x="280" y="544" width="40" height="40" rx="8" fill="#f3f4f6" stroke="#9ca3af" stroke-width="1.6"/>
<rect x="336" y="550" width="160" height="10" rx="5" fill="#e5e7eb"/>
<rect x="336" y="570" width="220" height="8" rx="5" fill="#e5e7eb"/>
<rect x="690" y="550" width="90" height="10" rx="5" fill="#e5e7eb"/>
<rect x="650" y="570" width="130" height="8" rx="5" fill="#e5e7eb"/>
<line x1="260" y1="598" x2="800" y2="598" stroke="#e5e7eb"/>
<rect x="280" y="612" width="40" height="40" rx="8" fill="#f3f4f6" stroke="#9ca3af" stroke-width="1.6"/>
<rect x="336" y="618" width="160" height="10" rx="5" fill="#e5e7eb"/>
<rect x="336" y="638" width="220" height="8" rx="5" fill="#e5e7eb"/>
<rect x="690" y="618" width="90" height="10" rx="5" fill="#e5e7eb"/>
<rect x="650" y="638" width="130" height="8" rx="5" fill="#e5e7eb"/>
<line x1="260" y1="666" x2="800" y2="666" stroke="#e5e7eb"/>
<rect x="280" y="680" width="40" height="40" rx="8" fill="#f3f4f6" stroke="#9ca3af" stroke-width="1.6"/>
<rect x="336" y="686" width="160" height="10" rx="5" fill="#e5e7eb"/>
<rect x="336" y="706" width="220" height="8" rx="5" fill="#e5e7eb"/>
<rect x="690" y="686" width="90" height="10" rx="5" fill="#e5e7eb"/>
<rect x="650" y="706" width="130" height="8" rx="5" fill="#e5e7eb"/>
<rect x="820" y="346" width="350" height="400" rx="6" fill="#ffffff" stroke="#374151" stroke-width="1.6"/>
<text x="840" y="378" font-size="16" font-weight="700" text-anchor="start" fill="#374151">Последние платежи</text>
<line x1="820" y1="394" x2="1170" y2="394" stroke="#e5e7eb"/>
<rect x="840" y="414" width="150" height="10" rx="5" fill="#e5e7eb"/>
<rect x="840" y="434" width="110" height="8" rx="5" fill="#e5e7eb"/>
<rect x="1070" y="414" width="80" height="10" rx="5" fill="#e5e7eb"/>
<line x1="820" y1="462" x2="1170" y2="462" stroke="#e5e7eb"/>
<rect x="840" y="482" width="150" height="10" rx="5" fill="#e5e7eb"/>
<rect x="840" y="502" width="110" height="8" rx="5" fill="#e5e7eb"/>
<rect x="1070" y="482" width="80" height="10" rx="5" fill="#e5e7eb"/>
<line x1="820" y1="530" x2="1170" y2="530" stroke="#e5e7eb"/>
<rect x="840" y="550" width="150" height="10" rx="5" fill="#e5e7eb"/>
<rect x="840" y="570" width="110" height="8" rx="5" fill="#e5e7eb"/>
<rect x="1070" y="550" width="80" height="10" rx="5" fill="#e5e7eb"/>
<line x1="820" y1="598" x2="1170" y2="598" stroke="#e5e7eb"/>
<rect x="840" y="618" width="150" height="10" rx="5" fill="#e5e7eb"/>
<rect x="840" y="638" width="110" height="8" rx="5" fill="#e5e7eb"/>
<rect x="1070" y="618" width="80" height="10" rx="5" fill="#e5e7eb"/>
<line x1="820" y1="666" x2="1170" y2="666" stroke="#e5e7eb"/>
<rect x="840" y="686" width="150" height="10" rx="5" fill="#e5e7eb"/>
<rect x="840" y="706" width="110" height="8" rx="5" fill="#e5e7eb"/>
<rect x="1070" y="686" width="80" height="10" rx="5" fill="#e5e7eb"/></svg>